0
SECTION
  2
HEADER
  9
$EXTMAX
 10
 2114.6667
 20
 2521.3333
  9
$EXTMIN
 10
  -81.3333
 20
 -244.0000
  9
$LIMMAX
 10
 2114.6667
 20
 2521.3333
  9
$LIMMIN
 10
  -81.3333
 20
 -244.0000
  0
ENDSEC
0
SECTION
  2
TABLES
  0
TABLE
  2
LTYPE
 70
     1
  0
LTYPE
  2
CONTINUOUS
 70
    64
  3
Solid line
 72
   65
 73
    0
 40
0.0
  0
ENDTAB
  0
TABLE
  2
LAYER
 70
       2
  0
LAYER
  2
251
 70
    0
 62
251
  6
CONTINUOUS
  0
LAYER
  2
1
 70
    0
 62
1
  6
CONTINUOUS
  0
ENDTAB
  0
ENDSEC
0
SECTION
  2
ENTITIES
  0
LINE
  8
251
 62
11
 10
   1220.0000
 20
      0.0000
 30
      0.0000
 11
   1220.0000
 21
   2440.0000
 31
      0.0000
  0
LINE
  8
251
 62
11
 10
   1220.0000
 20
   2440.0000
 30
      0.0000
 11
   1214.0000
 21
   2440.0000
 31
      0.0000
  0
LINE
  8
251
 62
11
 10
   1214.0000
 20
   2440.0000
 30
      0.0000
 11
   1214.0000
 21
      0.0000
 31
      0.0000
  0
LINE
  8
251
 62
11
 10
   1214.0000
 20
      0.0000
 30
      0.0000
 11
   1220.0000
 21
      0.0000
 31
      0.0000
  0
LINE
  8
251
 62
11
 10
      0.0000
 20
   2440.0000
 30
      0.0000
 11
      0.0000
 21
   2406.2500
 31
      0.0000
  0
LINE
  8
251
 62
11
 10
      0.0000
 20
   2406.2500
 30
      0.0000
 11
   1220.0000
 21
   2406.2500
 31
      0.0000
  0
LINE
  8
251
 62
11
 10
   1220.0000
 20
   2406.2500
 30
      0.0000
 11
   1220.0000
 21
   2440.0000
 31
      0.0000
  0
LINE
  8
251
 62
11
 10
   1220.0000
 20
   2440.0000
 30
      0.0000
 11
      0.0000
 21
   2440.0000
 31
      0.0000
  0
LINE
  8
251
 62
9
 10
      0.0000
 20
      0.0000
 30
      0.0000
 11
      0.0000
 21
   2440.0000
 31
      0.0000
  0
LINE
  8
251
 62
9
 10
      0.0000
 20
   2440.0000
 30
      0.0000
 11
   1220.0000
 21
   2440.0000
 31
      0.0000
  0
LINE
  8
251
 62
9
 10
   1220.0000
 20
   2440.0000
 30
      0.0000
 11
   1220.0000
 21
      0.0000
 31
      0.0000
  0
LINE
  8
251
 62
9
 10
   1220.0000
 20
      0.0000
 30
      0.0000
 11
      0.0000
 21
      0.0000
 31
      0.0000
  0
TEXT
  8
251
 62
12
 10
    444.3333
 20
    -61.0000
 30
      0.0000
 40
     40.6667
 1
1214.000
  0
POLYLINE
  8
251
 62
12
 10
      0.0000
 20
      0.0000
 30
      0.0000
 66
  1
 70
  0
  0
VERTEX
  8
251
 62
12
 10
    424.0000
 20
    -40.6667
 30
      0.0000
  0
VERTEX
  8
251
 62
12
 10
      0.0000
 20
    -40.6667
 30
      0.0000
  0
VERTEX
  8
251
 62
12
 10
     40.6667
 20
    -61.0000
 30
      0.0000
  0
VERTEX
  8
251
 62
12
 10
     40.6667
 20
    -20.3333
 30
      0.0000
  0
VERTEX
  8
251
 62
12
 10
      0.0000
 20
    -40.6667
 30
      0.0000
  0
VERTEX
  8
251
 62
12
 10
      0.0000
 20
    -81.3333
 30
      0.0000
  0
VERTEX
  8
251
 62
12
 10
      0.0000
 20
      0.0000
 30
      0.0000
  0
SEQEND
  8
251
 62
12
  0
POLYLINE
  8
251
 62
12
 10
      0.0000
 20
      0.0000
 30
      0.0000
 66
  1
 70
  0
  0
VERTEX
  8
251
 62
12
 10
    790.0000
 20
    -40.6667
 30
      0.0000
  0
VERTEX
  8
251
 62
12
 10
   1214.0000
 20
    -40.6667
 30
      0.0000
  0
VERTEX
  8
251
 62
12
 10
   1173.3334
 20
    -20.3333
 30
      0.0000
  0
VERTEX
  8
251
 62
12
 10
   1173.3334
 20
    -61.0000
 30
      0.0000
  0
VERTEX
  8
251
 62
12
 10
   1214.0000
 20
    -40.6667
 30
      0.0000
  0
VERTEX
  8
251
 62
12
 10
   1214.0000
 20
      0.0000
 30
      0.0000
  0
VERTEX
  8
251
 62
12
 10
   1214.0000
 20
    -81.3333
 30
      0.0000
  0
SEQEND
  8
251
 62
12
  0
TEXT
  8
251
 62
12
 10
    447.3333
 20
   2460.3335
 30
      0.0000
 40
     40.6667
 1
1220.000
  0
POLYLINE
  8
251
 62
12
 10
      0.0000
 20
      0.0000
 30
      0.0000
 66
  1
 70
  0
  0
VERTEX
  8
251
 62
12
 10
    427.0000
 20
   2480.6667
 30
      0.0000
  0
VERTEX
  8
251
 62
12
 10
      0.0000
 20
   2480.6667
 30
      0.0000
  0
VERTEX
  8
251
 62
12
 10
     40.6667
 20
   2460.3335
 30
      0.0000
  0
VERTEX
  8
251
 62
12
 10
     40.6667
 20
   2501.0000
 30
      0.0000
  0
VERTEX
  8
251
 62
12
 10
      0.0000
 20
   2480.6667
 30
      0.0000
  0
VERTEX
  8
251
 62
12
 10
      0.0000
 20
   2440.0000
 30
      0.0000
  0
VERTEX
  8
251
 62
12
 10
      0.0000
 20
   2521.3335
 30
      0.0000
  0
SEQEND
  8
251
 62
12
  0
POLYLINE
  8
251
 62
12
 10
      0.0000
 20
      0.0000
 30
      0.0000
 66
  1
 70
  0
  0
VERTEX
  8
251
 62
12
 10
    793.0000
 20
   2480.6667
 30
      0.0000
  0
VERTEX
  8
251
 62
12
 10
   1220.0000
 20
   2480.6667
 30
      0.0000
  0
VERTEX
  8
251
 62
12
 10
   1179.3334
 20
   2501.0000
 30
      0.0000
  0
VERTEX
  8
251
 62
12
 10
   1179.3334
 20
   2460.3335
 30
      0.0000
  0
VERTEX
  8
251
 62
12
 10
   1220.0000
 20
   2480.6667
 30
      0.0000
  0
VERTEX
  8
251
 62
12
 10
   1220.0000
 20
   2521.3335
 30
      0.0000
  0
VERTEX
  8
251
 62
12
 10
   1220.0000
 20
   2440.0000
 30
      0.0000
  0
SEQEND
  8
251
 62
12
  0
TEXT
  8
251
 62
12
 10
    -20.3333
 20
   1040.4584
 30
      0.0000
 40
     40.6667
 1
2406.250
 50
     90.0000
  0
POLYLINE
  8
251
 62
12
 10
      0.0000
 20
      0.0000
 30
      0.0000
 66
  1
 70
  0
  0
VERTEX
  8
251
 62
12
 10
    -40.6667
 20
   1020.1251
 30
      0.0000
  0
VERTEX
  8
251
 62
12
 10
    -40.6667
 20
      0.0000
 30
      0.0000
  0
VERTEX
  8
251
 62
12
 10
    -20.3333
 20
     40.6667
 30
      0.0000
  0
VERTEX
  8
251
 62
12
 10
    -61.0000
 20
     40.6667
 30
      0.0000
  0
VERTEX
  8
251
 62
12
 10
    -40.6667
 20
      0.0000
 30
      0.0000
  0
VERTEX
  8
251
 62
12
 10
      0.0000
 20
      0.0000
 30
      0.0000
  0
VERTEX
  8
251
 62
12
 10
    -81.3333
 20
      0.0000
 30
      0.0000
  0
SEQEND
  8
251
 62
12
  0
POLYLINE
  8
251
 62
12
 10
      0.0000
 20
      0.0000
 30
      0.0000
 66
  1
 70
  0
  0
VERTEX
  8
251
 62
12
 10
    -40.6667
 20
   1386.1250
 30
      0.0000
  0
VERTEX
  8
251
 62
12
 10
    -40.6667
 20
   2406.2500
 30
      0.0000
  0
VERTEX
  8
251
 62
12
 10
    -61.0000
 20
   2365.5833
 30
      0.0000
  0
VERTEX
  8
251
 62
12
 10
    -20.3333
 20
   2365.5833
 30
      0.0000
  0
VERTEX
  8
251
 62
12
 10
    -40.6667
 20
   2406.2500
 30
      0.0000
  0
VERTEX
  8
251
 62
12
 10
    -81.3333
 20
   2406.2500
 30
      0.0000
  0
VERTEX
  8
251
 62
12
 10
      0.0000
 20
   2406.2500
 30
      0.0000
  0
SEQEND
  8
251
 62
12
  0
TEXT
  8
251
 62
12
 10
   1281.0000
 20
   1057.3334
 30
      0.0000
 40
     40.6667
 1
2440.000
 50
     90.0000
  0
POLYLINE
  8
251
 62
12
 10
      0.0000
 20
      0.0000
 30
      0.0000
 66
  1
 70
  0
  0
VERTEX
  8
251
 62
12
 10
   1260.6666
 20
   1037.0000
 30
      0.0000
  0
VERTEX
  8
251
 62
12
 10
   1260.6666
 20
      0.0000
 30
      0.0000
  0
VERTEX
  8
251
 62
12
 10
   1281.0000
 20
     40.6667
 30
      0.0000
  0
VERTEX
  8
251
 62
12
 10
   1240.3333
 20
     40.6667
 30
      0.0000
  0
VERTEX
  8
251
 62
12
 10
   1260.6666
 20
      0.0000
 30
      0.0000
  0
VERTEX
  8
251
 62
12
 10
   1301.3333
 20
      0.0000
 30
      0.0000
  0
VERTEX
  8
251
 62
12
 10
   1220.0000
 20
      0.0000
 30
      0.0000
  0
SEQEND
  8
251
 62
12
  0
POLYLINE
  8
251
 62
12
 10
      0.0000
 20
      0.0000
 30
      0.0000
 66
  1
 70
  0
  0
VERTEX
  8
251
 62
12
 10
   1260.6666
 20
   1403.0000
 30
      0.0000
  0
VERTEX
  8
251
 62
12
 10
   1260.6666
 20
   2440.0000
 30
      0.0000
  0
VERTEX
  8
251
 62
12
 10
   1240.3333
 20
   2399.3333
 30
      0.0000
  0
VERTEX
  8
251
 62
12
 10
   1281.0000
 20
   2399.3333
 30
      0.0000
  0
VERTEX
  8
251
 62
12
 10
   1260.6666
 20
   2440.0000
 30
      0.0000
  0
VERTEX
  8
251
 62
12
 10
   1220.0000
 20
   2440.0000
 30
      0.0000
  0
VERTEX
  8
251
 62
12
 10
   1301.3333
 20
   2440.0000
 30
      0.0000
  0
SEQEND
  8
251
 62
12
  0
LINE
  8
1
 62
7
 10
      7.8578
 20
    202.0000
 30
      0.0000
 11
    507.8578
 21
    202.0000
 31
      0.0000
  0
LINE
  8
1
 62
7
 10
    507.8578
 20
    202.0000
 30
      0.0000
 11
    507.8578
 21
      2.0000
 31
      0.0000
  0
LINE
  8
1
 62
7
 10
    507.8578
 20
      2.0000
 30
      0.0000
 11
      7.8578
 21
      2.0000
 31
      0.0000
  0
LINE
  8
1
 62
7
 10
      7.8578
 20
      2.0000
 30
      0.0000
 11
      7.8578
 21
    202.0000
 31
      0.0000
  0
TEXT
  8
251
 62
13
 10
    242.6078
 20
    171.5000
 30
      0.0000
 40
     30.5000
 1
1
  0
LINE
  8
1
 62
7
 10
      2.0000
 20
    404.0000
 30
      0.0000
 11
    502.0000
 21
    404.0000
 31
      0.0000
  0
LINE
  8
1
 62
7
 10
    502.0000
 20
    404.0000
 30
      0.0000
 11
    502.0000
 21
    204.0000
 31
      0.0000
  0
LINE
  8
1
 62
7
 10
    502.0000
 20
    204.0000
 30
      0.0000
 11
      2.0000
 21
    204.0000
 31
      0.0000
  0
LINE
  8
1
 62
7
 10
      2.0000
 20
    204.0000
 30
      0.0000
 11
      2.0000
 21
    404.0000
 31
      0.0000
  0
TEXT
  8
251
 62
13
 10
    236.7500
 20
    373.5000
 30
      0.0000
 40
     30.5000
 1
1
  0
LINE
  8
1
 62
7
 10
    947.3578
 20
    828.7075
 30
      0.0000
 11
    575.3578
 21
    828.7075
 31
      0.0000
  0
LINE
  8
1
 62
7
 10
    575.3578
 20
    828.7075
 30
      0.0000
 11
    575.3578
 21
    774.7075
 31
      0.0000
  0
ARC
  8
1
 62
7
 10
    615.3578
 20
    774.7075
 30
      0.0000
 40
     40.0000
 50
 180.0000
 51
 270.0000
  0
LINE
  8
1
 62
7
 10
    615.3578
 20
    734.7075
 30
      0.0000
 11
    907.3578
 21
    734.7075
 31
      0.0000
  0
ARC
  8
1
 62
7
 10
    907.3578
 20
    774.7075
 30
      0.0000
 40
     40.0000
 50
 270.0000
 51
 360.0000
  0
LINE
  8
1
 62
7
 10
    947.3578
 20
    774.7075
 30
      0.0000
 11
    947.3578
 21
    828.7075
 31
      0.0000
  0
LINE
  8
1
 62
7
 10
   1009.8578
 20
   1226.2028
 30
      0.0000
 11
   1009.8578
 21
      2.0000
 31
      0.0000
  0
LINE
  8
1
 62
7
 10
   1009.8578
 20
      2.0000
 30
      0.0000
 11
    509.8578
 21
      2.0000
 31
      0.0000
  0
LINE
  8
1
 62
7
 10
    509.8578
 20
      2.0000
 30
      0.0000
 11
    509.8578
 21
   1226.2028
 31
      0.0000
  0
LINE
  8
1
 62
7
 10
    509.8578
 20
   1226.2028
 30
      0.0000
 11
   1009.8578
 21
   1226.2028
 31
      0.0000
  0
TEXT
  8
251
 62
13
 10
    979.3578
 20
    598.8514
 30
      0.0000
 40
     30.5000
 1
2
  0
LINE
  8
1
 62
7
 10
    503.9999
 20
   1996.0607
 30
      0.0000
 11
   1003.9999
 21
   1996.0607
 31
      0.0000
  0
LINE
  8
1
 62
7
 10
   1003.9999
 20
   1996.0607
 30
      0.0000
 11
   1003.9999
 21
   1796.0607
 31
      0.0000
  0
LINE
  8
1
 62
7
 10
   1003.9999
 20
   1796.0607
 30
      0.0000
 11
    503.9999
 21
   1796.0607
 31
      0.0000
  0
LINE
  8
1
 62
7
 10
    503.9999
 20
   1796.0607
 30
      0.0000
 11
    503.9999
 21
   1996.0607
 31
      0.0000
  0
TEXT
  8
251
 62
13
 10
    738.7499
 20
   1965.5607
 30
      0.0000
 40
     30.5000
 1
1
  0
LINE
  8
1
 62
7
 10
    504.0000
 20
   2198.0605
 30
      0.0000
 11
   1004.0000
 21
   2198.0605
 31
      0.0000
  0
LINE
  8
1
 62
7
 10
   1004.0000
 20
   2198.0605
 30
      0.0000
 11
   1004.0000
 21
   1998.0605
 31
      0.0000
  0
LINE
  8
1
 62
7
 10
   1004.0000
 20
   1998.0605
 30
      0.0000
 11
    504.0000
 21
   1998.0605
 31
      0.0000
  0
LINE
  8
1
 62
7
 10
    504.0000
 20
   1998.0605
 30
      0.0000
 11
    504.0000
 21
   2198.0605
 31
      0.0000
  0
TEXT
  8
251
 62
13
 10
    738.7500
 20
   2167.5605
 30
      0.0000
 40
     30.5000
 1
1
  0
LINE
  8
1
 62
7
 10
   1003.9999
 20
   2200.0608
 30
      0.0000
 11
    503.9999
 21
   2200.0608
 31
      0.0000
  0
LINE
  8
1
 62
7
 10
    503.9999
 20
   2200.0608
 30
      0.0000
 11
    503.9998
 21
   2400.0608
 31
      0.0000
  0
LINE
  8
1
 62
7
 10
    503.9998
 20
   2400.0608
 30
      0.0000
 11
   1003.9999
 21
   2400.0608
 31
      0.0000
  0
LINE
  8
1
 62
7
 10
   1003.9999
 20
   2400.0608
 30
      0.0000
 11
   1003.9999
 21
   2200.0608
 31
      0.0000
  0
TEXT
  8
251
 62
13
 10
    738.7499
 20
   2200.0608
 30
      0.0000
 40
     30.5000
 1
1
  0
LINE
  8
1
 62
7
 10
    521.9999
 20
   1774.0607
 30
      0.0000
 11
   1134.0000
 21
   1774.0607
 31
      0.0000
  0
LINE
  8
1
 62
7
 10
   1134.0000
 20
   1774.0607
 30
      0.0000
 11
   1134.0000
 21
   1234.0607
 31
      0.0000
  0
LINE
  8
1
 62
7
 10
   1134.0000
 20
   1234.0607
 30
      0.0000
 11
    521.9999
 21
   1234.0607
 31
      0.0000
  0
ARC
  8
1
 62
7
 10
    521.9999
 20
   1214.0607
 30
      0.0000
 40
     20.0000
 50
  90.0000
 51
 180.0000
  0
LINE
  8
1
 62
7
 10
    501.9999
 20
   1214.0607
 30
      0.0000
 11
    501.9999
 21
    604.0607
 31
      0.0000
  0
LINE
  8
1
 62
7
 10
    501.9999
 20
    604.0607
 30
      0.0000
 11
      2.0000
 21
    604.0607
 31
      0.0000
  0
LINE
  8
1
 62
7
 10
      2.0000
 20
    604.0607
 30
      0.0000
 11
      2.0000
 21
   2404.0605
 31
      0.0000
  0
LINE
  8
1
 62
7
 10
      2.0000
 20
   2404.0605
 30
      0.0000
 11
    501.9999
 21
   2404.0605
 31
      0.0000
  0
LINE
  8
1
 62
7
 10
    501.9999
 20
   2404.0605
 30
      0.0000
 11
    501.9999
 21
   1794.0607
 31
      0.0000
  0
ARC
  8
1
 62
7
 10
    521.9999
 20
   1794.0607
 30
      0.0000
 40
     20.0000
 50
 180.0000
 51
 270.0000
  0
TEXT
  8
251
 62
13
 10
    812.7500
 20
   1743.5607
 30
      0.0000
 40
     30.5000
 1
3
  0
LINE
  8
1
 62
7
 10
   1011.8578
 20
      2.0000
 30
      0.0000
 11
   1011.8578
 21
    502.0000
 31
      0.0000
  0
LINE
  8
1
 62
7
 10
   1011.8578
 20
    502.0000
 30
      0.0000
 11
   1211.8578
 21
    502.0000
 31
      0.0000
  0
LINE
  8
1
 62
7
 10
   1211.8578
 20
    502.0000
 30
      0.0000
 11
   1211.8578
 21
      2.0000
 31
      0.0000
  0
LINE
  8
1
 62
7
 10
   1211.8578
 20
      2.0000
 30
      0.0000
 11
   1011.8578
 21
      2.0000
 31
      0.0000
  0
TEXT
  8
251
 62
13
 10
   1011.8578
 20
    236.7500
 30
      0.0000
 40
     30.5000
 1
1
  0
LINE
  8
1
 62
7
 10
   1011.8578
 20
    504.0000
 30
      0.0000
 11
   1011.8578
 21
   1004.0000
 31
      0.0000
  0
LINE
  8
1
 62
7
 10
   1011.8578
 20
   1004.0000
 30
      0.0000
 11
   1211.8578
 21
   1004.0000
 31
      0.0000
  0
LINE
  8
1
 62
7
 10
   1211.8578
 20
   1004.0000
 30
      0.0000
 11
   1211.8578
 21
    504.0000
 31
      0.0000
  0
LINE
  8
1
 62
7
 10
   1211.8578
 20
    504.0000
 30
      0.0000
 11
   1011.8578
 21
    504.0000
 31
      0.0000
  0
TEXT
  8
251
 62
13
 10
   1011.8578
 20
    738.7500
 30
      0.0000
 40
     30.5000
 1
1
  0
LINE
  8
1
 62
7
 10
   1005.9999
 20
   1776.0607
 30
      0.0000
 11
   1005.9999
 21
   2276.0605
 31
      0.0000
  0
LINE
  8
1
 62
7
 10
   1005.9999
 20
   2276.0605
 30
      0.0000
 11
   1205.9999
 21
   2276.0605
 31
      0.0000
  0
LINE
  8
1
 62
7
 10
   1205.9999
 20
   2276.0605
 30
      0.0000
 11
   1206.0000
 21
   1776.0607
 31
      0.0000
  0
LINE
  8
1
 62
7
 10
   1206.0000
 20
   1776.0607
 30
      0.0000
 11
   1005.9999
 21
   1776.0607
 31
      0.0000
  0
TEXT
  8
251
 62
13
 10
   1005.9999
 20
   2010.8105
 30
      0.0000
 40
     30.5000
 1
1
  0
TEXT
  8
251
 62
13
 10
    -81.3333
 20
   -122.0000
 30
      0.0000
 40
     32.5333
 1
1)Soporte para libros(8)
  0
TEXT
  8
251
 62
13
 10
    -81.3333
 20
   -183.0000
 30
      0.0000
 40
     32.5333
 1
2)Escalera Unida v8
  0
TEXT
  8
251
 62
13
 10
    -81.3333
 20
   -244.0000
 30
      0.0000
 40
     32.5333
 1
3)Silla2
  0
ENDSEC
  0
EOF
